<mxfile host="app.diagrams.net" agent="Mozilla/5.0 (Windows NT 10.0; Win64; x64) AppleWebKit/537.36 (KHTML, like Gecko) Chrome/128.0.0.0 Safari/537.36" version="24.7.12">
  <diagram name="Page-1" id="CfH62lJIbUNXy9YviGzw">
    <mxGraphModel dx="1434" dy="772" grid="1" gridSize="10" guides="1" tooltips="1" connect="1" arrows="1" fold="1" page="1" pageScale="1" pageWidth="850" pageHeight="1100" math="0" shadow="0">
      <root>
        <mxCell id="0" />
        <mxCell id="1" parent="0" />
        <mxCell id="Lp06s8lEi-RwbBrePSfL-1" value="guru" style="shape=umlActor;verticalLabelPosition=bottom;verticalAlign=top;html=1;outlineConnect=0;" vertex="1" parent="1">
          <mxGeometry x="360" y="280" width="80" height="150" as="geometry" />
        </mxCell>
        <mxCell id="Lp06s8lEi-RwbBrePSfL-2" value="" style="rounded=0;whiteSpace=wrap;html=1;" vertex="1" parent="1">
          <mxGeometry x="530" y="190" width="260" height="330" as="geometry" />
        </mxCell>
        <mxCell id="Lp06s8lEi-RwbBrePSfL-3" value="siswa&amp;nbsp;" style="shape=umlActor;verticalLabelPosition=bottom;verticalAlign=top;html=1;outlineConnect=0;" vertex="1" parent="1">
          <mxGeometry x="860" y="280" width="80" height="150" as="geometry" />
        </mxCell>
        <mxCell id="Lp06s8lEi-RwbBrePSfL-4" value="" style="ellipse;whiteSpace=wrap;html=1;" vertex="1" parent="1">
          <mxGeometry x="595" y="230" width="120" height="60" as="geometry" />
        </mxCell>
        <mxCell id="Lp06s8lEi-RwbBrePSfL-5" value="Login" style="text;strokeColor=none;align=center;fillColor=none;html=1;verticalAlign=middle;whiteSpace=wrap;rounded=0;" vertex="1" parent="1">
          <mxGeometry x="625" y="245" width="60" height="30" as="geometry" />
        </mxCell>
        <mxCell id="Lp06s8lEi-RwbBrePSfL-6" value="" style="ellipse;whiteSpace=wrap;html=1;" vertex="1" parent="1">
          <mxGeometry x="595" y="325" width="120" height="60" as="geometry" />
        </mxCell>
        <mxCell id="Lp06s8lEi-RwbBrePSfL-7" value="Daftar point" style="text;strokeColor=none;align=center;fillColor=none;html=1;verticalAlign=middle;whiteSpace=wrap;rounded=0;" vertex="1" parent="1">
          <mxGeometry x="620" y="340" width="70" height="30" as="geometry" />
        </mxCell>
        <mxCell id="Lp06s8lEi-RwbBrePSfL-8" value="" style="ellipse;whiteSpace=wrap;html=1;" vertex="1" parent="1">
          <mxGeometry x="600" y="420" width="120" height="60" as="geometry" />
        </mxCell>
        <mxCell id="Lp06s8lEi-RwbBrePSfL-9" value="Riwayat point" style="text;strokeColor=none;align=center;fillColor=none;html=1;verticalAlign=middle;whiteSpace=wrap;rounded=0;" vertex="1" parent="1">
          <mxGeometry x="620" y="432.5" width="80" height="35" as="geometry" />
        </mxCell>
        <mxCell id="Lp06s8lEi-RwbBrePSfL-10" value="" style="endArrow=none;html=1;rounded=0;entryX=0.042;entryY=0.333;entryDx=0;entryDy=0;entryPerimeter=0;" edge="1" target="Lp06s8lEi-RwbBrePSfL-4" parent="1">
          <mxGeometry width="50" height="50" relative="1" as="geometry">
            <mxPoint x="440" y="330" as="sourcePoint" />
            <mxPoint x="490" y="280" as="targetPoint" />
            <Array as="points">
              <mxPoint x="490" y="250" />
            </Array>
          </mxGeometry>
        </mxCell>
        <mxCell id="Lp06s8lEi-RwbBrePSfL-11" value="" style="endArrow=none;html=1;rounded=0;entryX=0.033;entryY=0.633;entryDx=0;entryDy=0;entryPerimeter=0;" edge="1" target="Lp06s8lEi-RwbBrePSfL-6" parent="1">
          <mxGeometry width="50" height="50" relative="1" as="geometry">
            <mxPoint x="440" y="330" as="sourcePoint" />
            <mxPoint x="480" y="330" as="targetPoint" />
          </mxGeometry>
        </mxCell>
        <mxCell id="Lp06s8lEi-RwbBrePSfL-12" value="" style="endArrow=none;html=1;rounded=0;exitX=0.958;exitY=0.333;exitDx=0;exitDy=0;exitPerimeter=0;" edge="1" source="Lp06s8lEi-RwbBrePSfL-4" parent="1">
          <mxGeometry width="50" height="50" relative="1" as="geometry">
            <mxPoint x="810" y="380" as="sourcePoint" />
            <mxPoint x="860" y="330" as="targetPoint" />
            <Array as="points">
              <mxPoint x="830" y="250" />
            </Array>
          </mxGeometry>
        </mxCell>
        <mxCell id="Lp06s8lEi-RwbBrePSfL-13" value="" style="endArrow=none;html=1;rounded=0;exitX=1;exitY=0.5;exitDx=0;exitDy=0;entryX=0;entryY=0.3333333333333333;entryDx=0;entryDy=0;entryPerimeter=0;" edge="1" source="Lp06s8lEi-RwbBrePSfL-8" target="Lp06s8lEi-RwbBrePSfL-3" parent="1">
          <mxGeometry width="50" height="50" relative="1" as="geometry">
            <mxPoint x="830" y="410" as="sourcePoint" />
            <mxPoint x="880" y="360" as="targetPoint" />
          </mxGeometry>
        </mxCell>
      </root>
    </mxGraphModel>
  </diagram>
</mxfile>
